<svg width="32" height="41" viewBox="0 0 32 41" fill="none" xmlns="http://www.w3.org/2000/svg">
<g clip-path="url(#clip0_6968_7540)">
<path d="M8.06108 3.1911C7.9407 3.688 7.91104 4.1454 7.97212 4.5633C8.08189 5.30983 8.35099 6.07532 8.77942 6.85977C10.1134 9.30318 11.4678 11.7375 12.8425 14.1627C13.5011 15.3248 14.581 17.4194 16.0823 20.4466" stroke="#606060" stroke-width="2"/>
<path d="M16.0824 20.4466C14.89 18.8003 13.6866 17.1773 12.4721 15.5776C12.1127 15.1028 11.7958 14.7841 11.5214 14.6213C10.4592 13.9921 9.00257 14.1722 7.98813 14.8014C7.37469 15.1822 6.94448 15.5942 6.69751 16.0374" stroke="#7F7F7F" stroke-width="2"/>
<path d="M6.6975 16.0374C6.3505 16.6575 6.34873 17.2598 6.69219 17.8444C7.42779 19.0966 7.89871 19.9122 8.10497 20.2914C8.45551 20.9368 9.03885 22.2012 9.85501 24.0845" stroke="#606060" stroke-width="2"/>
<path d="M9.85494 24.0845C8.74047 22.4761 7.58573 20.8938 6.39071 19.3375C6.00387 18.8335 5.70069 18.5207 5.48116 18.399C5.066 18.1699 4.56764 18.1225 3.98606 18.2568C2.79901 18.5302 1.93948 19.1025 1.40747 19.9738" stroke="#7F7F7F" stroke-width="2"/>
<path d="M1.40751 19.9738C0.979958 20.7014 1.22427 21.5261 1.58278 22.2347C2.53525 24.1133 3.65016 25.9117 4.92751 27.6299C6.07296 29.1696 7.07456 30.4114 7.93232 31.3555C8.08635 31.5237 8.26162 31.6671 8.39705 31.8401C8.62942 32.1364 8.91357 32.3473 9.15257 32.6246C9.27738 32.7683 9.41548 32.9034 9.56685 33.0298C9.97669 33.3703 10.3826 33.7187 10.7844 34.075C10.8561 34.1382 10.9898 34.2243 11.1854 34.3333" stroke="#606060" stroke-width="2"/>
<path d="M11.1854 34.3333L11.9662 34.9009" stroke="#7F7F7F" stroke-width="2"/>
<path d="M11.9662 34.9009C12.0069 34.9744 12.1136 35.0372 12.2862 35.0893C12.4907 35.151 12.6513 35.4128 12.8664 35.3998C12.8879 35.3983 12.9096 35.4007 12.9301 35.4068C12.9506 35.4129 12.9696 35.4226 12.9859 35.4353L13.1599 35.5704C13.1926 35.5957 13.2311 35.6064 13.2754 35.6024C13.3763 35.5929 13.4595 35.6297 13.525 35.7126C13.5381 35.7292 13.5563 35.742 13.5773 35.7493C13.5983 35.7567 13.6212 35.7584 13.6432 35.7541C13.7468 35.7344 13.8326 35.7675 13.9008 35.8536C13.914 35.8701 13.933 35.882 13.9545 35.8874C13.9761 35.8928 13.9988 35.8914 14.019 35.8833C14.1084 35.8485 14.1801 35.8706 14.2341 35.9496C14.2391 35.9571 14.2459 35.9636 14.2539 35.9687C14.2619 35.9738 14.271 35.9774 14.2807 35.9792C14.2903 35.9811 14.3004 35.9812 14.3101 35.9796C14.3199 35.978 14.3293 35.9746 14.3376 35.9698C14.404 35.9287 14.4532 35.9437 14.485 36.0148C14.5027 36.0543 14.5333 36.0658 14.5766 36.0492L14.6284 36.0302C14.6683 36.0152 14.701 36.0227 14.7267 36.0527C14.7709 36.1056 14.8196 36.1151 14.8727 36.0812C14.9126 36.0567 14.9462 36.0622 14.9737 36.0977C15.0277 36.1665 15.0896 36.1728 15.1595 36.1167C15.1654 36.1119 15.1725 36.1084 15.1801 36.1064C15.1878 36.1045 15.1958 36.1041 15.2037 36.1054C15.2115 36.1066 15.2189 36.1095 15.2253 36.1137C15.2317 36.1179 15.2369 36.1234 15.2405 36.1297C15.2821 36.2 15.3384 36.2119 15.4092 36.1653C15.449 36.1392 15.4875 36.1404 15.5247 36.1688C15.5973 36.2249 15.6765 36.2328 15.7624 36.1925C15.7844 36.1821 15.8093 36.1774 15.8343 36.1789C15.8594 36.1803 15.8836 36.1879 15.9044 36.2008L15.9429 36.2245C15.9739 36.2435 16.0054 36.2447 16.0372 36.2281C16.1381 36.1736 16.2324 36.1744 16.32 36.2305C16.3344 36.2394 16.3513 36.2446 16.3689 36.2454C16.3865 36.2463 16.404 36.2427 16.4196 36.2352C16.5347 36.1807 16.6502 36.1724 16.7662 36.2103C16.8069 36.2237 16.8472 36.2234 16.887 36.2091C17.0703 36.1428 17.2615 36.1724 17.4646 36.1345C19.8015 35.7055 21.9411 34.8251 23.8832 33.4932C24.2722 33.2266 24.6732 32.9327 25.0291 32.6175C25.7744 31.9579 26.4459 31.2635 27.0434 30.5343C27.0938 30.4719 27.1443 30.4067 27.1947 30.3388C28.1844 28.9879 28.6566 27.5288 28.6115 25.9615C28.6053 25.7474 28.5995 25.5239 28.5942 25.2908C28.5889 25.0665 28.5761 24.8429 28.5557 24.6201" stroke="#606060" stroke-width="2"/>
<path d="M28.5557 24.6201C28.4937 23.8412 28.4313 23.0607 28.3685 22.2786C28.2676 21.0281 28.3061 19.7819 28.484 18.54C28.6115 17.6505 28.8279 16.8455 29.1333 16.1251C29.5573 15.1234 30.0393 14.0486 30.5793 12.9008C30.8139 12.4015 30.9028 11.8742 30.8462 11.3188C30.7187 10.0876 29.6963 9.08515 28.2888 9.01523C27.046 8.9548 26.0103 9.64327 25.215 10.4751C24.6927 11.0202 24.2705 11.559 23.9482 12.0914" stroke="#7F7F7F" stroke-width="2"/>
<path d="M23.9483 12.0914C23.7359 12.36 23.5469 12.6567 23.3813 12.9813C22.8847 13.9562 22.5028 14.9413 22.2354 15.9367C22.2186 15.9991 22.1841 16.18 22.1319 16.4794C22.0991 16.6611 22.0495 16.8404 21.9832 17.0174" stroke="#606060" stroke-width="2"/>
<path d="M21.9831 17.0173C19.9715 13.3427 18.0183 9.66815 15.8553 6.05399C15.226 5.00095 14.5758 3.99609 13.9048 3.03942C13.4047 2.32686 12.7775 1.77822 12.0233 1.3935C10.2056 0.466851 8.43825 1.47408 8.06116 3.1911" stroke="#7F7F7F" stroke-width="2"/>
<path d="M21.9832 17.0174C22.0566 17.2259 22.1301 17.438 22.2036 17.6537C22.3563 18.1052 22.6404 18.4405 22.898 18.8315C22.9564 18.9208 22.9879 18.9137 22.9923 18.8102C23.0365 17.6916 23.1237 16.6081 23.2539 15.5598C23.3132 15.0803 23.4234 14.4867 23.5845 13.7788C23.7102 13.2251 23.8315 12.6626 23.9483 12.0914" stroke="#DFDFDF" stroke-width="2"/>
<path d="M28.5557 24.6201C28.5459 24.8768 28.5442 25.1336 28.5504 25.3903C28.5575 25.681 28.5305 25.9338 28.4694 26.1487C28.1472 27.2831 27.5736 28.3243 26.7485 29.2723C24.6887 31.6383 22.1061 33.2475 19.0008 34.0999C18.6919 34.1844 18.371 34.2586 18.0382 34.3226C17.7 34.3874 17.3659 34.436 17.0357 34.4684C15.8354 34.5877 14.6917 34.4305 13.6046 33.9968C12.0617 33.3806 10.6662 32.2987 9.5283 31.1908C7.1449 28.8729 4.94473 26.0065 3.17743 23.1969C2.52946 22.166 1.93948 21.0916 1.40747 19.9738" stroke="#DFDFDF" stroke-width="2"/>
<path d="M9.85502 24.0845L10.6278 25.6024C10.6747 25.6949 10.7066 25.6909 10.7234 25.5906C10.8323 24.9448 10.669 24.1651 10.4671 23.5311C10.0582 22.2474 9.48102 20.9202 8.73568 19.5496C7.91776 18.0463 7.23837 16.8755 6.69751 16.0374" stroke="#DFDFDF" stroke-width="2"/>
<path d="M16.0824 20.4466C16.0665 20.5604 16.1196 20.6576 16.2417 20.7382C16.2922 20.7713 16.3289 20.814 16.3519 20.8661C16.4511 21.0936 16.5746 21.3148 16.7224 21.5297C16.8508 21.7146 16.9056 21.6988 16.887 21.4823C16.8764 21.3543 16.8481 21.2236 16.8021 21.0901C16.047 18.89 15.1552 16.7432 14.1266 14.6498C13.8442 14.077 13.4622 13.3641 12.9807 12.5109C11.5599 9.99402 10.2025 7.55811 8.90829 5.20318C8.65734 4.74697 8.48871 4.31919 8.31211 3.78359C8.24484 3.58214 8.16118 3.38465 8.06116 3.1911" stroke="#DFDFDF" stroke-width="2"/>
<path d="M11.9661 34.9009C11.7732 34.6552 11.5443 34.4439 11.2797 34.2669C11.2726 34.2622 11.2645 34.2589 11.2559 34.257C11.2474 34.2552 11.2385 34.2549 11.2298 34.2563C11.2211 34.2576 11.2128 34.2605 11.2054 34.2648C11.198 34.2691 11.1916 34.2746 11.1867 34.2812C11.1814 34.2891 11.181 34.3064 11.1854 34.3333" stroke="#DFDFDF" stroke-width="2"/>
<path d="M17.7952 36.9426C17.6138 36.9221 17.4279 36.9486 17.2375 37.022" stroke="#606060" stroke-width="2"/>
<path d="M17.2376 37.022L16.429 37.0505C16.3794 37.052 16.3334 37.0639 16.2909 37.086C16.2351 37.1144 16.1838 37.1133 16.1368 37.0824C16.1067 37.0627 16.0731 37.0536 16.0359 37.0552C15.8589 37.0631 15.6876 37.0603 15.5221 37.0469C15.4752 37.0429 15.4296 37.0347 15.3853 37.022C15.3322 37.0062 15.2804 37.0086 15.23 37.0291C15.2122 37.037 15.1941 37.0394 15.1755 37.0362C15.1463 37.0315 15.1233 37.0185 15.1065 36.9971C15.0835 36.9679 15.0547 36.9624 15.0202 36.9805C14.9617 37.0121 14.9082 37.0086 14.8595 36.9699C14.8267 36.9438 14.7887 36.9296 14.7453 36.9272C14.6311 36.9201 14.5116 36.9008 14.3868 36.8692C13.7273 36.7033 13.1493 36.5066 12.6527 36.279C12.6146 36.2617 12.5792 36.2415 12.5465 36.2186C12.5057 36.1902 12.4748 36.1973 12.4535 36.2399C12.4137 36.3197 12.3929 36.3877 12.3911 36.4437" stroke="#7F7F7F" stroke-width="2"/>
<path d="M12.3911 36.4438C12.3079 36.5481 12.2654 36.6594 12.2636 36.7779C12.2512 37.4723 12.4898 38.0747 12.9793 38.585C13.4626 39.0882 14.0022 39.439 14.5979 39.6373C15.1706 39.8292 15.816 39.9233 16.5338 39.9193C17.7032 39.9146 18.8562 39.7341 19.9928 39.3778C23.484 38.2844 26.3512 36.539 28.5943 34.1414C29.306 33.3822 29.8774 32.5772 30.3085 31.7264C30.7634 30.8306 30.8599 29.9201 30.5979 28.9951" stroke="#606060" stroke-width="2"/>
<path d="M30.5978 28.995C30.3473 28.4254 29.9923 27.9582 29.5329 27.5932C29.5254 27.5871 29.5162 27.5829 29.5063 27.5811C29.4963 27.5793 29.486 27.5799 29.4764 27.583C29.4669 27.586 29.4584 27.5914 29.452 27.5984C29.4456 27.6054 29.4414 27.6139 29.44 27.6228C29.0775 29.693 27.6939 31.4858 26.0342 32.9516C23.9849 34.7631 21.575 36.0219 18.8043 36.7281C18.7122 36.7518 18.5436 36.7838 18.2984 36.8241C18.1258 36.8534 17.958 36.8929 17.7952 36.9426" stroke="#7F7F7F" stroke-width="2"/>
<path d="M30.5979 28.9951C30.4926 29.0069 30.4386 29.0851 30.4359 29.2297C30.4333 29.3426 30.4226 29.4276 30.4041 29.4844C30.1376 30.2823 29.7477 31.006 29.2343 31.6553C27.3612 34.0221 24.9118 35.8387 21.8862 37.105C20.2796 37.7781 18.6384 38.2876 16.9309 38.3824C15.0002 38.4902 13.3445 38.0068 12.3911 36.4438" stroke="#DFDFDF" stroke-width="2"/>
<path d="M17.2375 37.022C17.465 37.0568 17.6509 37.0303 17.7952 36.9426" stroke="#DFDFDF" stroke-width="2"/>
<path d="M5.52625 17.3539C5.51563 17.2105 5.46119 17.0529 5.46915 16.9119C5.50545 16.3273 5.64664 15.8569 5.89272 15.5006C6.88238 14.0699 8.33809 13.3447 10.2599 13.325C10.3077 13.325 10.3794 13.3463 10.4218 13.3676C10.4679 13.3898 10.5135 13.3898 10.5586 13.3676C10.6117 13.3432 10.6586 13.3487 10.6994 13.3842C10.7365 13.4166 10.7812 13.4304 10.8335 13.4257C10.9273 13.417 11.0114 13.432 11.0858 13.4707C11.354 13.6114 11.4155 13.5557 11.2703 13.3037C10.2532 11.5452 9.22506 9.69897 8.18583 7.7651C7.37455 6.259 6.87928 5.06218 7.00675 3.594C7.15812 1.86157 8.37305 0.308077 10.3926 0.159955C12.391 0.0142037 14.0069 1.45039 14.9563 2.84747C15.9973 4.38082 16.9909 5.98567 17.9372 7.66201C19.1614 9.83366 20.3892 12.0784 21.6205 14.3962C21.6524 14.4578 21.6807 14.4566 21.7055 14.3926C21.7639 14.2386 21.825 14.0834 21.8887 13.9269C22.3313 12.8431 22.9067 11.8272 23.6149 10.8792C24.397 9.83169 25.511 8.71308 26.8614 8.31256C29.7201 7.46767 32.1672 9.53071 31.8433 12.0843C31.7857 12.5378 31.5671 13.1579 31.1873 13.9447C30.9271 14.4835 30.6527 15.0783 30.3641 15.7293C30.0649 16.4031 29.8489 16.9861 29.7161 17.4783C29.4072 18.6206 29.2788 19.8143 29.3311 21.0593C29.3886 22.4307 29.4678 23.8637 29.5687 25.3584C29.5918 25.6933 29.59 26.035 29.5634 26.3834C29.559 26.4363 29.5816 26.4782 29.6311 26.509C31.0413 27.3847 31.8658 28.7 31.7198 30.2511C31.6746 30.7417 31.5157 31.2935 31.2431 31.9065C31.0085 32.4334 30.7916 32.8466 30.5925 33.146C30.5712 33.1784 30.5398 33.1985 30.4982 33.2064C30.4654 33.2128 30.4424 33.2297 30.4292 33.2574C30.3327 33.4557 30.2056 33.6393 30.0481 33.8084C29.6298 34.2599 29.2899 34.7493 28.8411 35.1877C26.3935 37.5766 23.4184 39.2751 19.9156 40.2831C19.2238 40.4822 18.467 40.5995 17.7566 40.718C17.2113 40.8096 16.6152 40.8317 15.9681 40.7843C15.167 40.7251 14.4548 40.5568 13.8316 40.2795C13.1615 39.9817 12.6269 39.6017 12.2277 39.1396C11.4363 38.2248 10.9304 36.8929 11.5744 35.811C11.5845 35.7932 11.5872 35.7728 11.5818 35.7536C11.5764 35.7344 11.5634 35.7177 11.5452 35.7067C10.4528 35.04 9.39944 34.1923 8.385 33.1638C5.39214 30.131 2.92332 26.8013 0.97853 23.1745C0.601434 22.4706 0.254878 21.7122 0.213717 20.9337C0.120771 19.1918 1.82567 17.8433 3.64077 17.4143C4.30467 17.2571 4.90926 17.2536 5.45455 17.4037C5.505 17.4179 5.5289 17.4013 5.52625 17.3539ZM8.06102 3.19111C7.94063 3.68801 7.91098 4.14541 7.97206 4.56331C8.08182 5.30984 8.35092 6.07533 8.77936 6.85978C10.1134 9.30319 11.4677 11.7375 12.8424 14.1628C13.501 15.3248 14.581 17.4195 16.0823 20.4467C14.8899 18.8003 13.6865 17.1773 12.472 15.5776C12.1126 15.1028 11.7957 14.7841 11.5213 14.6213C10.459 13.9921 9.00243 14.1722 7.98799 14.8015C7.37455 15.1822 6.94434 15.5942 6.69737 16.0374C6.35037 16.6575 6.3486 17.2599 6.69206 17.8445C7.42766 19.0966 7.89859 19.9122 8.10484 20.2914C8.45538 20.9368 9.03872 22.2012 9.85488 24.0845C8.74041 22.4761 7.58567 20.8938 6.39065 19.3375C6.00381 18.8335 5.70063 18.5207 5.4811 18.399C5.06594 18.1699 4.56758 18.1225 3.986 18.2568C2.79895 18.5302 1.93942 19.1025 1.40741 19.9739C0.979858 20.7014 1.22417 21.5262 1.58268 22.2348C2.53516 24.1134 3.65007 25.9117 4.92741 27.63C6.07286 29.1696 7.07446 30.4115 7.93222 31.3555C8.08625 31.5238 8.26152 31.6672 8.39695 31.8402C8.62932 32.1364 8.91347 32.3473 9.15247 32.6246C9.27729 32.7684 9.41538 32.9035 9.56675 33.0299C9.97659 33.3704 10.3825 33.7187 10.7843 34.075C10.856 34.1382 10.9897 34.2243 11.1853 34.3333L11.9661 34.9009C12.0068 34.9744 12.1135 35.0372 12.2861 35.0893C12.4906 35.151 12.6512 35.4128 12.8663 35.3998C12.8878 35.3983 12.9095 35.4007 12.93 35.4068C12.9505 35.4129 12.9695 35.4226 12.9858 35.4354L13.1598 35.5704C13.1925 35.5957 13.231 35.6064 13.2753 35.6024C13.3762 35.593 13.4594 35.6297 13.5249 35.7126C13.538 35.7292 13.5562 35.742 13.5772 35.7494C13.5982 35.7567 13.6211 35.7584 13.6431 35.7541C13.7467 35.7344 13.8325 35.7675 13.9007 35.8537C13.9139 35.8701 13.9329 35.882 13.9544 35.8874C13.976 35.8928 13.9987 35.8914 14.0189 35.8833C14.1083 35.8485 14.18 35.8706 14.234 35.9496C14.239 35.9571 14.2458 35.9636 14.2538 35.9687C14.2618 35.9738 14.2709 35.9774 14.2806 35.9792C14.2902 35.9811 14.3003 35.9813 14.31 35.9796C14.3198 35.978 14.3292 35.9747 14.3375 35.9698C14.4039 35.9287 14.4531 35.9437 14.4849 36.0148C14.5026 36.0543 14.5332 36.0658 14.5765 36.0492L14.6283 36.0302C14.6682 36.0152 14.7009 36.0227 14.7266 36.0527C14.7708 36.1057 14.8195 36.1151 14.8726 36.0812C14.9125 36.0567 14.9461 36.0622 14.9736 36.0978C15.0275 36.1665 15.0895 36.1728 15.1594 36.1167C15.1653 36.1119 15.1724 36.1084 15.18 36.1064C15.1877 36.1045 15.1957 36.1041 15.2036 36.1054C15.2114 36.1066 15.2188 36.1095 15.2252 36.1137C15.2316 36.1179 15.2368 36.1234 15.2404 36.1298C15.282 36.2001 15.3383 36.2119 15.4091 36.1653C15.4489 36.1392 15.4874 36.1404 15.5246 36.1689C15.5972 36.2249 15.6764 36.2328 15.7623 36.1926C15.7843 36.1822 15.8092 36.1774 15.8342 36.1789C15.8593 36.1804 15.8835 36.1879 15.9043 36.2009L15.9428 36.2246C15.9738 36.2435 16.0053 36.2447 16.0371 36.2281C16.138 36.1736 16.2323 36.1744 16.3199 36.2305C16.3343 36.2394 16.3512 36.2446 16.3688 36.2454C16.3864 36.2463 16.4039 36.2427 16.4195 36.2352C16.5346 36.1807 16.6501 36.1724 16.7661 36.2103C16.8068 36.2238 16.8471 36.2234 16.8869 36.2091C17.0701 36.1428 17.2614 36.1724 17.4645 36.1345C19.8014 35.7055 21.941 34.8251 23.8831 33.4932C24.2721 33.2266 24.6731 32.9327 25.029 32.6175C25.7743 31.9579 26.4457 31.2635 27.0433 30.5343C27.0937 30.4719 27.1442 30.4067 27.1946 30.3388C28.1843 28.9879 28.6565 27.5288 28.6114 25.9615C28.6052 25.7474 28.5994 25.5239 28.5941 25.2908C28.5888 25.0665 28.576 24.8429 28.5556 24.6201C28.4937 23.8412 28.4313 23.0607 28.3684 22.2786C28.2675 21.0281 28.306 19.7819 28.4839 18.54C28.6114 17.6505 28.8278 16.8455 29.1332 16.1251C29.5572 15.1234 30.0392 14.0486 30.5792 12.9008C30.8138 12.4015 30.9027 11.8742 30.8461 11.3188C30.7186 10.0876 29.6962 9.08516 28.2887 9.01524C27.0459 8.95481 26.0102 9.64328 25.2149 10.4751C24.6926 11.0202 24.2704 11.559 23.9482 12.0914C23.7357 12.36 23.5467 12.6567 23.3812 12.9813C22.8846 13.9562 22.5026 14.9413 22.2353 15.9367C22.2185 15.9991 22.184 16.18 22.1317 16.4794C22.099 16.6611 22.0494 16.8404 21.983 17.0174C19.9714 13.3428 18.0182 9.66816 15.8552 6.054C15.2258 5.00096 14.5757 3.9961 13.9047 3.03943C13.4045 2.32687 12.7774 1.77823 12.0232 1.39351C10.2054 0.466863 8.43812 1.47409 8.06102 3.19111ZM17.7951 36.9426C17.6137 36.9221 17.4278 36.9486 17.2375 37.022L16.4288 37.0505C16.3793 37.0521 16.3332 37.0639 16.2907 37.086C16.235 37.1145 16.1836 37.1133 16.1367 37.0825C16.1066 37.0627 16.073 37.0536 16.0358 37.0552C15.8588 37.0631 15.6875 37.0604 15.5219 37.0469C15.475 37.043 15.4294 37.0347 15.3852 37.022C15.3321 37.0062 15.2803 37.0086 15.2298 37.0291C15.2121 37.037 15.194 37.0394 15.1754 37.0363C15.1462 37.0315 15.1231 37.0185 15.1063 36.9972C15.0833 36.9679 15.0545 36.9624 15.02 36.9806C14.9616 37.0122 14.908 37.0086 14.8594 36.9699C14.8266 36.9438 14.7885 36.9296 14.7452 36.9272C14.631 36.9201 14.5115 36.9008 14.3867 36.8692C13.7272 36.7033 13.1492 36.5066 12.6526 36.2791C12.6145 36.2617 12.5791 36.2415 12.5463 36.2186C12.5056 36.1902 12.4746 36.1973 12.4534 36.24C12.4136 36.3197 12.3927 36.3877 12.391 36.4438C12.3078 36.548 12.2653 36.6594 12.2635 36.7779C12.2511 37.4723 12.4897 38.0747 12.9792 38.585C13.4625 39.0882 14.002 39.439 14.5978 39.6373C15.1705 39.8292 15.8158 39.9232 16.5337 39.9193C17.7031 39.9146 18.856 39.734 19.9926 39.3778C23.4839 38.2844 26.351 36.539 28.5941 34.1414C29.3058 33.3822 29.8772 32.5772 30.3083 31.7264C30.7633 30.8306 30.8598 29.9201 30.5978 28.995C30.3473 28.4255 29.9923 27.9582 29.5329 27.5932C29.5254 27.5871 29.5162 27.5829 29.5062 27.5811C29.4963 27.5793 29.486 27.5799 29.4764 27.583C29.4668 27.586 29.4584 27.5914 29.452 27.5984C29.4455 27.6054 29.4414 27.6139 29.4399 27.6228C29.0775 29.693 27.6939 31.4859 26.0341 32.9517C23.9849 34.7631 21.5749 36.0219 18.8043 36.7282C18.7122 36.7519 18.5436 36.7839 18.2984 36.8241C18.1257 36.8534 17.958 36.8929 17.7951 36.9426Z" fill="black"/>
<path d="M21.9831 17.0173C22.0565 17.2259 22.13 17.438 22.2035 17.6537C22.3562 18.1051 22.6403 18.4405 22.8979 18.8315C22.9564 18.9208 22.9878 18.9137 22.9922 18.8102C23.0365 17.6916 23.1237 16.6081 23.2538 15.5598C23.3131 15.0803 23.4233 14.4866 23.5844 13.7788C23.7101 13.225 23.8314 12.6626 23.9482 12.0914C24.2704 11.559 24.6927 11.0202 25.2149 10.4751C26.0103 9.64327 27.046 8.9548 28.2888 9.01523C29.6963 9.08515 30.7187 10.0876 30.8461 11.3188C30.9028 11.8742 30.8138 12.4015 30.5793 12.9008C30.0393 14.0486 29.5573 15.1234 29.1333 16.1251C28.8279 16.8455 28.6115 17.6505 28.484 18.54C28.3061 19.7819 28.2676 21.0281 28.3685 22.2786C28.4313 23.0607 28.4937 23.8412 28.5557 24.6201C28.5459 24.8769 28.5442 25.1336 28.5504 25.3904C28.5575 25.6811 28.5305 25.9339 28.4694 26.1487C28.1472 27.2831 27.5736 28.3243 26.7485 29.2723C24.6887 31.6383 22.1061 33.2475 19.0008 34.0999C18.6919 34.1844 18.371 34.2587 18.0382 34.3227C17.7 34.3874 17.3659 34.436 17.0357 34.4684C15.8354 34.5877 14.6917 34.4305 13.6046 33.9968C12.0617 33.3806 10.6662 32.2987 9.5283 31.1908C7.1449 28.873 4.94473 26.0065 3.17743 23.197C2.52946 22.166 1.93948 21.0917 1.40747 19.9738C1.93948 19.1025 2.79901 18.5302 3.98606 18.2568C4.56764 18.1225 5.066 18.1699 5.48116 18.399C5.70069 18.5207 6.00387 18.8335 6.39071 19.3375C7.58573 20.8938 8.74047 22.4761 9.85494 24.0845L10.6277 25.6025C10.6746 25.6949 10.7065 25.6909 10.7233 25.5906C10.8322 24.9448 10.6689 24.1651 10.4671 23.5311C10.0581 22.2474 9.48094 20.9202 8.7356 19.5496C7.91768 18.0463 7.23829 16.8755 6.69743 16.0374C6.9444 15.5942 7.37461 15.1822 7.98805 14.8014C9.00249 14.1722 10.4591 13.9921 11.5213 14.6213C11.7957 14.7841 12.1126 15.1028 12.472 15.5776C13.6865 17.1773 14.89 18.8003 16.0823 20.4467C16.0664 20.5604 16.1195 20.6576 16.2417 20.7382C16.2921 20.7713 16.3289 20.814 16.3519 20.8661C16.451 21.0936 16.5745 21.3148 16.7223 21.5297C16.8507 21.7146 16.9056 21.6988 16.887 21.4823C16.8764 21.3543 16.848 21.2236 16.802 21.0901C16.0469 18.89 15.1551 16.7432 14.1265 14.6498C13.8441 14.077 13.4621 13.3641 12.9806 12.5109C11.5598 9.99402 10.2024 7.55811 8.90822 5.20318C8.65726 4.74697 8.48863 4.31919 8.31204 3.78359C8.24476 3.58214 8.16111 3.38465 8.06108 3.1911C8.43818 1.47408 10.2055 0.466851 12.0232 1.3935C12.7774 1.77822 13.4046 2.32686 13.9047 3.03942C14.5757 3.99609 15.2259 5.00095 15.8553 6.05399C18.0183 9.66815 19.9715 13.3427 21.9831 17.0173Z" fill="#FEFEFE"/>
<path d="M8.06108 3.1911C8.16111 3.38465 8.24476 3.58214 8.31204 3.78359C8.48864 4.31919 8.65727 4.74697 8.90822 5.20318C10.2024 7.55811 11.5598 9.99402 12.9806 12.5109C13.4621 13.3641 13.8441 14.077 14.1265 14.6498C15.1551 16.7432 16.0469 18.89 16.802 21.0901C16.848 21.2236 16.8764 21.3543 16.887 21.4823C16.9056 21.6988 16.8507 21.7146 16.7223 21.5297C16.5745 21.3148 16.451 21.0936 16.3519 20.8661C16.3289 20.814 16.2921 20.7713 16.2417 20.7382C16.1195 20.6576 16.0664 20.5604 16.0823 20.4466C14.581 17.4194 13.5011 15.3248 12.8425 14.1627C11.4678 11.7375 10.1134 9.30318 8.77942 6.85977C8.35099 6.07532 8.08189 5.30983 7.97212 4.5633C7.91104 4.1454 7.9407 3.688 8.06108 3.1911Z" fill="#BFBFBF"/>
<path d="M23.9482 12.0914C23.8313 12.6626 23.7101 13.2251 23.5844 13.7788C23.4233 14.4867 23.313 15.0803 23.2537 15.5598C23.1236 16.6081 23.0364 17.6916 22.9922 18.8102C22.9877 18.9137 22.9563 18.9208 22.8979 18.8315C22.6403 18.4405 22.3561 18.1052 22.2034 17.6537C22.13 17.438 22.0565 17.2259 21.983 17.0174C22.0494 16.8404 22.099 16.6611 22.1317 16.4794C22.184 16.18 22.2185 15.9991 22.2353 15.9367C22.5026 14.9413 22.8846 13.9562 23.3812 12.9813C23.5467 12.6567 23.7357 12.36 23.9482 12.0914Z" fill="#BFBFBF"/>
<path d="M6.69737 16.0374C7.23823 16.8756 7.91762 18.0463 8.73555 19.5497C9.48089 20.9203 10.058 22.2475 10.467 23.5312C10.6688 24.1651 10.8321 24.9448 10.7233 25.5907C10.7064 25.691 10.6746 25.6949 10.6277 25.6025L9.85488 24.0846C9.03873 22.2012 8.45538 20.9369 8.10484 20.2915C7.89859 19.9123 7.42767 19.0966 6.69206 17.8445C6.34861 17.2599 6.35038 16.6575 6.69737 16.0374Z" fill="#BFBFBF"/>
<path d="M1.40751 19.9739C1.93952 21.0917 2.5295 22.1661 3.17747 23.197C4.94477 26.0066 7.14494 28.873 9.52834 31.1908C10.6663 32.2988 12.0618 33.3806 13.6047 33.9968C14.6917 34.4305 15.8354 34.5877 17.0357 34.4684C17.3659 34.4361 17.7001 34.3875 18.0382 34.3227C18.3711 34.2587 18.6919 34.1844 19.0009 34.0999C22.1062 33.2475 24.6887 31.6383 26.7486 29.2723C27.5736 28.3244 28.1472 27.2832 28.4694 26.1488C28.5305 25.9339 28.5575 25.6811 28.5504 25.3904C28.5442 25.1336 28.546 24.8769 28.5557 24.6201C28.5761 24.8429 28.5889 25.0665 28.5942 25.2908C28.5995 25.5239 28.6053 25.7475 28.6115 25.9615C28.6566 27.5289 28.1844 28.988 27.1947 30.3388C27.1443 30.4068 27.0938 30.4719 27.0434 30.5343C26.4458 31.2635 25.7744 31.9579 25.0291 32.6175C24.6732 32.9327 24.2722 33.2266 23.8832 33.4932C21.9411 34.8251 19.8015 35.7056 17.4646 36.1345C17.2615 36.1724 17.0702 36.1428 16.887 36.2092C16.8472 36.2234 16.8069 36.2238 16.7662 36.2103C16.6502 36.1724 16.5347 36.1807 16.4196 36.2352C16.404 36.2428 16.3865 36.2463 16.3689 36.2455C16.3513 36.2446 16.3344 36.2394 16.32 36.2305C16.2324 36.1744 16.1381 36.1736 16.0372 36.2281C16.0054 36.2447 15.9739 36.2435 15.9429 36.2246L15.9044 36.2009C15.8836 36.188 15.8594 36.1804 15.8343 36.1789C15.8093 36.1774 15.7844 36.1822 15.7624 36.1926C15.6765 36.2329 15.5973 36.225 15.5247 36.1689C15.4875 36.1404 15.449 36.1393 15.4092 36.1653C15.3384 36.2119 15.2821 36.2001 15.2405 36.1298C15.2369 36.1235 15.2317 36.118 15.2253 36.1137C15.2189 36.1095 15.2115 36.1066 15.2037 36.1054C15.1958 36.1041 15.1878 36.1045 15.1801 36.1065C15.1725 36.1084 15.1654 36.1119 15.1595 36.1167C15.0896 36.1728 15.0276 36.1665 14.9736 36.0978C14.9462 36.0622 14.9126 36.0567 14.8727 36.0812C14.8196 36.1152 14.7709 36.1057 14.7267 36.0528C14.701 36.0227 14.6683 36.0152 14.6284 36.0302L14.5766 36.0492C14.5333 36.0658 14.5027 36.0543 14.485 36.0148C14.4532 35.9437 14.404 35.9287 14.3376 35.9698C14.3293 35.9747 14.3199 35.978 14.3101 35.9797C14.3004 35.9813 14.2903 35.9811 14.2807 35.9793C14.271 35.9774 14.2619 35.9738 14.2539 35.9687C14.2459 35.9636 14.2391 35.9571 14.2341 35.9497C14.1801 35.8707 14.1084 35.8485 14.019 35.8833C13.9988 35.8914 13.9761 35.8928 13.9545 35.8874C13.933 35.882 13.914 35.8701 13.9008 35.8537C13.8326 35.7676 13.7468 35.7344 13.6432 35.7541C13.6212 35.7584 13.5983 35.7567 13.5773 35.7494C13.5563 35.742 13.5381 35.7292 13.525 35.7127C13.4595 35.6297 13.3763 35.593 13.2754 35.6025C13.2311 35.6064 13.1926 35.5957 13.1599 35.5705L12.9859 35.4354C12.9696 35.4226 12.9506 35.4129 12.9301 35.4068C12.9096 35.4007 12.8879 35.3983 12.8664 35.3998C12.6513 35.4129 12.4907 35.151 12.2862 35.0894C12.1136 35.0372 12.0069 34.9744 11.9662 34.901C11.7732 34.6553 11.5444 34.444 11.2797 34.267C11.2726 34.2623 11.2646 34.2589 11.256 34.2571C11.2474 34.2552 11.2385 34.255 11.2298 34.2563C11.2211 34.2576 11.2128 34.2605 11.2054 34.2648C11.198 34.2691 11.1917 34.2747 11.1868 34.2812C11.1815 34.2891 11.181 34.3065 11.1854 34.3334C10.9898 34.2243 10.8561 34.1382 10.7844 34.075C10.3826 33.7188 9.97669 33.3704 9.56685 33.0299C9.41548 32.9035 9.27738 32.7684 9.15257 32.6246C8.91357 32.3473 8.62942 32.1364 8.39705 31.8402C8.26162 31.6672 8.08635 31.5238 7.93232 31.3555C7.07456 30.4115 6.07296 29.1696 4.92751 27.63C3.65016 25.9118 2.53525 24.1134 1.58278 22.2348C1.22427 21.5262 0.979958 20.7014 1.40751 19.9739Z" fill="#BFBFBF"/>
<path d="M30.5978 28.9951C30.4925 29.0069 30.4385 29.0851 30.4358 29.2297C30.4331 29.3427 30.4225 29.4276 30.4039 29.4845C30.1375 30.2824 29.7476 31.006 29.2341 31.6553C27.3611 34.0221 24.9117 35.8387 21.8861 37.105C20.2795 37.7781 18.6383 38.2876 16.9307 38.3824C15.0001 38.4903 13.3444 38.0068 12.391 36.4438C12.3928 36.3877 12.4136 36.3198 12.4534 36.24C12.4746 36.1973 12.5056 36.1902 12.5463 36.2187C12.5791 36.2416 12.6145 36.2617 12.6526 36.2791C13.1492 36.5066 13.7272 36.7033 14.3867 36.8692C14.5115 36.9008 14.631 36.9202 14.7452 36.9273C14.7886 36.9297 14.8266 36.9439 14.8594 36.9699C14.9081 37.0086 14.9616 37.0122 15.02 36.9806C15.0546 36.9624 15.0833 36.968 15.1063 36.9972C15.1232 37.0185 15.1462 37.0316 15.1754 37.0363C15.194 37.0395 15.2121 37.0371 15.2298 37.0292C15.2803 37.0086 15.3321 37.0063 15.3852 37.0221C15.4294 37.0347 15.475 37.043 15.5219 37.047C15.6875 37.0604 15.8588 37.0632 16.0358 37.0553C16.073 37.0537 16.1066 37.0628 16.1367 37.0825C16.1836 37.1133 16.235 37.1145 16.2907 37.0861C16.3332 37.0639 16.3793 37.0521 16.4288 37.0505L17.2375 37.0221C17.465 37.0568 17.6509 37.0304 17.7951 36.9427C17.958 36.8929 18.1258 36.8534 18.2984 36.8242C18.5436 36.7839 18.7122 36.7519 18.8043 36.7282C21.5749 36.022 23.9849 34.7631 26.0341 32.9517C27.6939 31.4859 29.0775 29.693 29.44 27.6229C29.4414 27.6139 29.4455 27.6055 29.452 27.5984C29.4584 27.5914 29.4668 27.5861 29.4764 27.583C29.486 27.58 29.4963 27.5793 29.5062 27.5811C29.5162 27.5829 29.5254 27.5871 29.5329 27.5933C29.9923 27.9582 30.3473 28.4255 30.5978 28.9951Z" fill="#FEFEFE"/>
<path d="M30.5978 28.9951C30.8598 29.9201 30.7633 30.8306 30.3083 31.7264C29.8772 32.5772 29.3058 33.3822 28.5941 34.1414C26.351 36.539 23.4839 38.2844 19.9926 39.3778C18.8561 39.7341 17.7031 39.9146 16.5337 39.9193C15.8158 39.9233 15.1705 39.8292 14.5978 39.6373C14.0021 39.439 13.4625 39.0882 12.9792 38.585C12.4897 38.0747 12.2511 37.4723 12.2635 36.7779C12.2653 36.6594 12.3078 36.5481 12.391 36.4438C13.3444 38.0068 15.0001 38.4902 16.9307 38.3824C18.6383 38.2876 20.2795 37.7781 21.8861 37.105C24.9117 35.8387 27.3611 34.0221 29.2341 31.6553C29.7476 31.006 30.1375 30.2823 30.4039 29.4844C30.4225 29.4276 30.4331 29.3426 30.4358 29.2297C30.4385 29.0851 30.4925 29.0069 30.5978 28.9951Z" fill="#BFBFBF"/>
<path d="M11.9661 34.901L11.1854 34.3334C11.181 34.3065 11.1814 34.2891 11.1867 34.2812C11.1916 34.2747 11.198 34.2691 11.2054 34.2648C11.2128 34.2605 11.2211 34.2577 11.2298 34.2563C11.2385 34.255 11.2474 34.2553 11.2559 34.2571C11.2645 34.2589 11.2726 34.2623 11.2797 34.267C11.5443 34.444 11.7732 34.6553 11.9661 34.901Z" fill="#FEFEFE"/>
<path d="M17.7952 36.9426C17.6509 37.0303 17.465 37.0568 17.2375 37.022C17.4279 36.9486 17.6138 36.9221 17.7952 36.9426Z" fill="#BFBFBF"/>
</g>
<defs>
<clipPath id="clip0_6968_7540">
<rect width="32" height="41" fill="white"/>
</clipPath>
</defs>
</svg>
