<svg width="24" height="24" viewBox="0 0 24 24" fill="none" xmlns="http://www.w3.org/2000/svg">
<path fill-rule="evenodd" clip-rule="evenodd" d="M18.483 19.7899V19.7879L18.501 19.7449L21.5 4.62494V4.57694C21.5 4.19994 21.36 3.87094 21.058 3.67394C20.793 3.50094 20.488 3.48894 20.274 3.50494C20.0748 3.52295 19.8782 3.5632 19.688 3.62494C19.6068 3.65109 19.5268 3.68045 19.448 3.71294L19.435 3.71794L2.71497 10.2769L2.70997 10.2789C2.65914 10.2963 2.60938 10.3167 2.56097 10.3399C2.44206 10.3934 2.32797 10.4569 2.21997 10.5299C2.00497 10.6779 1.59597 11.0259 1.66497 11.5779C1.72197 12.0359 2.03697 12.3259 2.24997 12.4769C2.3757 12.565 2.51087 12.6388 2.65297 12.6969L2.68497 12.7109L2.69497 12.7139L2.70197 12.7169L5.62797 13.7019C5.61797 13.8849 5.63597 14.0719 5.68497 14.2569L7.14997 19.8159C7.23 20.119 7.40294 20.3893 7.64449 20.589C7.88605 20.7887 8.18408 20.9077 8.49675 20.9293C8.80941 20.9509 9.12099 20.8741 9.38774 20.7095C9.65448 20.545 9.86299 20.3011 9.98397 20.0119L12.272 17.5659L16.201 20.5779L16.257 20.6019C16.614 20.7579 16.947 20.8069 17.252 20.7659C17.557 20.7239 17.799 20.5959 17.981 20.4509C18.1915 20.2803 18.3593 20.0628 18.471 19.8159L18.479 19.7989L18.482 19.7929L18.483 19.7899ZM7.13497 13.8749C7.11875 13.8133 7.1226 13.748 7.14598 13.6887C7.16936 13.6293 7.21104 13.579 7.26497 13.5449L17.186 7.24494C17.186 7.24494 17.77 6.88994 17.749 7.24494C17.749 7.24494 17.853 7.30694 17.54 7.59794C17.244 7.87494 10.469 14.4159 9.78297 15.0779C9.74483 15.115 9.7181 15.1622 9.70597 15.2139L8.59997 19.4339L7.13497 13.8749Z" fill="white"/>
</svg>
